<svg width="17" height="19" viewBox="0 0 17 19" fill="none" xmlns="http://www.w3.org/2000/svg">
<path d="M8.5 9.1875C9.40856 9.1875 10.2967 8.91808 11.0522 8.41332C11.8076 7.90855 12.3964 7.1911 12.7441 6.3517C13.0918 5.51231 13.1827 4.58866 13.0055 3.69756C12.8282 2.80646 12.3907 1.98793 11.7483 1.34548C11.1058 0.703033 10.2873 0.265521 9.3962 0.0882697C8.5051 -0.0889812 7.58145 0.00199039 6.74205 0.34968C5.90265 0.69737 5.1852 1.28616 4.68044 2.0416C4.17567 2.79704 3.90625 3.68519 3.90625 4.59375C3.90625 5.81209 4.39023 6.98053 5.25173 7.84202C6.11322 8.70352 7.28166 9.1875 8.5 9.1875ZM8.5 1.3125C9.14897 1.3125 9.78337 1.50494 10.323 1.86549C10.8626 2.22604 11.2831 2.7385 11.5315 3.33807C11.7798 3.93764 11.8448 4.59739 11.7182 5.23389C11.5916 5.87039 11.2791 6.45505 10.8202 6.91395C10.3613 7.37284 9.77664 7.68535 9.14014 7.81195C8.50364 7.93856 7.84389 7.87358 7.24432 7.62523C6.64475 7.37688 6.13229 6.95632 5.77174 6.41672C5.41119 5.87712 5.21875 5.24272 5.21875 4.59375C5.21875 3.72351 5.56445 2.88891 6.17981 2.27356C6.79516 1.6582 7.62976 1.3125 8.5 1.3125Z" fill="black"/>
<path d="M9.15625 10.5H7.84375C5.92922 10.5 4.0931 11.2605 2.73932 12.6143C1.38554 13.9681 0.625 15.8042 0.625 17.7188C0.625 17.8928 0.694141 18.0597 0.817211 18.1828C0.940282 18.3059 1.1072 18.375 1.28125 18.375H15.7188C15.8928 18.375 16.0597 18.3059 16.1828 18.1828C16.3059 18.0597 16.375 17.8928 16.375 17.7188C16.375 15.8042 15.6145 13.9681 14.2607 12.6143C12.9069 11.2605 11.0708 10.5 9.15625 10.5ZM1.97687 17.0625C2.13824 15.6192 2.82574 14.2859 3.90801 13.3174C4.99028 12.349 6.39143 11.8132 7.84375 11.8125H9.15625C10.6086 11.8132 12.0097 12.349 13.092 13.3174C14.1743 14.2859 14.8618 15.6192 15.0231 17.0625H1.97687Z" fill="black"/>
</svg>
