<svg width="15" height="18" viewBox="0 0 15 18" fill="none" xmlns="http://www.w3.org/2000/svg">
<path d="M1.1662 17.8725C0.667933 18.2052 0 17.848 0 17.2489V3.01544C0 1.36107 1.33956 0.0191033 2.99393 0.0161394L11.9918 4.86949e-06C13.6483 -0.00294803 14.9935 1.33748 14.9965 2.99394V17.2489C14.9965 17.848 14.3286 18.2052 13.8303 17.8725L7.49826 13.6446L1.1662 17.8725ZM13.4969 2.99931L13.4865 2.82176C13.3985 2.07608 12.7636 1.49829 11.9945 1.49966L2.99662 1.51579C2.16943 1.51727 1.49965 2.18825 1.49965 3.01544V15.8467L7.08189 12.1194C7.33395 11.9511 7.66256 11.9511 7.91463 12.1194L13.4969 15.8467V2.99931Z" fill="#212121"/>
</svg>
