<svg width="20" height="21" viewBox="0 0 20 21" fill="none" xmlns="http://www.w3.org/2000/svg">
<path d="M12.1156 8.6045C13.3649 9.03001 13.9139 10.5156 13.4865 11.9529C13.2375 12.6985 12.8328 13.3763 12.3065 13.9286C11.5462 14.6995 10.7167 15.3887 9.82696 15.989C8.93199 15.3918 8.09561 14.7012 7.32629 13.9243C6.80271 13.371 6.3974 12.6965 6.14438 11.9506C5.71101 10.5176 6.25671 9.02988 7.52609 8.59468L7.52611 8.59474L7.53382 8.59196C7.61586 8.56232 7.69994 8.54071 7.78401 8.52726H7.79919H7.83718L7.87474 8.52152C7.96982 8.50698 8.06488 8.50007 8.16153 8.50007H8.20061C8.40167 8.50717 8.59581 8.5419 8.7848 8.6044L8.79305 8.61261L8.90359 8.64981C8.98247 8.67636 9.03855 8.70022 9.08522 8.72711L9.10353 8.73766L9.12266 8.74662L9.26167 8.81177C9.26822 8.8163 9.27994 8.82463 9.29859 8.8387L9.34641 8.87491C9.36187 8.88649 9.38744 8.90546 9.41501 8.92308L9.41498 8.92312L9.42137 8.92707L9.4558 8.94819L9.48141 8.96413C9.4966 8.97384 9.50122 8.97753 9.50057 8.977L9.81315 9.22806L10.1261 8.9775C10.5195 8.66257 10.9908 8.4965 11.4707 8.50006V8.50007H11.4744C11.6976 8.50007 11.9125 8.53313 12.1109 8.6029L12.1109 8.60292L12.1156 8.6045Z" stroke="#BF015D"/>
<path d="M17 3H3C1.5 3 1 3.97143 1 4.45714V18.5429C1 19.32 1.5 20 2.5 20H17.3285C18.5 20 19 19.5143 19 18.5429V4.94286C19 3.38857 17.6667 3 17 3Z" stroke="#BF015D" stroke-width="1.5"/>
<path d="M4.5 1V4.4" stroke="#BF015D" stroke-width="1.5" stroke-linecap="round"/>
<path d="M15.5 1V4.4" stroke="#BF015D" stroke-width="1.5" stroke-linecap="round"/>
</svg>
