<svg width="18" height="18" viewBox="0 0 11 11" fill="none" xmlns="http://www.w3.org/2000/svg">
<path d="M6.60584 1.85602C6.35267 1.80925 6.12016 1.97081 6.07196 2.21794C6.02377 2.46507 6.18584 2.70635 6.43212 2.75471C7.17362 2.89927 7.74616 3.47324 7.89128 4.21728C7.93259 4.43146 8.12115 4.5877 8.3383 4.5877C8.36743 4.5877 8.39656 4.58505 8.42622 4.57973C8.6725 4.53031 8.83457 4.28956 8.78638 4.0419C8.56975 2.93062 7.71438 2.07232 6.60584 1.85602Z" fill="black"/>
<path d="M6.57252 0.00421722C6.45388 -0.0127894 6.33472 0.0222867 6.23991 0.0977536C6.14246 0.174283 6.08155 0.284826 6.06831 0.408656C6.04023 0.658972 6.22084 0.885372 6.47083 0.913539C8.19482 1.10593 9.53481 2.44892 9.72866 4.17828C9.75461 4.40999 9.94899 4.58484 10.181 4.58484C10.1985 4.58484 10.2154 4.58378 10.2329 4.58165C10.3542 4.56837 10.4622 4.50831 10.5385 4.41265C10.6142 4.31699 10.6486 4.19794 10.6349 4.07624C10.3934 1.91852 8.7234 0.243904 6.57252 0.00421722Z" fill="black"/>
<path fill-rule="evenodd" clip-rule="evenodd" d="M4.80327 5.83533C6.92475 7.95622 7.40603 5.50258 8.75678 6.8524C10.059 8.15427 10.8075 8.4151 9.15756 10.0646C8.95089 10.2306 7.63781 12.2288 3.02319 7.61548C-1.592 3.00158 0.405027 1.68715 0.57116 1.48054C2.22507 -0.173478 2.48141 0.579335 3.78364 1.88121C5.1344 3.23159 2.68179 3.71444 4.80327 5.83533Z" fill="black"/>
</svg>
