<svg width="18" height="18" viewBox="0 0 18 18" fill="none" xmlns="http://www.w3.org/2000/svg">
<circle cx="9" cy="9" r="9" fill="black"/>
<path d="M9.87733 5.12866C9.62416 5.08189 9.39164 5.24346 9.34345 5.49058C9.29525 5.73771 9.45732 5.97899 9.7036 6.02736C10.4451 6.17191 11.0176 6.74588 11.1628 7.48992C11.2041 7.7041 11.3926 7.86035 11.6098 7.86035C11.6389 7.86035 11.668 7.85769 11.6977 7.85238C11.944 7.80295 12.1061 7.5622 12.0579 7.31454C11.8412 6.20327 10.9859 5.34497 9.87733 5.12866Z" fill="white"/>
<path d="M9.84401 3.27686C9.72537 3.25985 9.6062 3.29493 9.51139 3.3704C9.41394 3.44693 9.35303 3.55747 9.33979 3.6813C9.31172 3.93162 9.49233 4.15802 9.74232 4.18618C11.4663 4.37857 12.8063 5.72156 13.0001 7.45092C13.0261 7.68264 13.2205 7.85748 13.4525 7.85748C13.4699 7.85748 13.4869 7.85642 13.5044 7.8543C13.6257 7.84101 13.7337 7.78096 13.81 7.68529C13.8857 7.58963 13.9201 7.47058 13.9064 7.34888C13.6648 5.19117 11.9949 3.51655 9.84401 3.27686Z" fill="white"/>
<path fill-rule="evenodd" clip-rule="evenodd" d="M8.07476 9.10798C10.1962 11.2289 10.6775 8.77524 12.0283 10.125C13.3305 11.4269 14.079 11.6877 12.429 13.3372C12.2224 13.5033 10.9093 15.5015 6.29468 10.8881C1.67949 6.27423 3.67651 4.9598 3.84264 4.75319C5.49655 3.09917 5.75289 3.85199 7.05512 5.15386C8.40588 6.50424 5.95328 6.98709 8.07476 9.10798Z" fill="white"/>
</svg>
