<svg width="16" height="16" viewBox="0 0 16 16" fill="none" xmlns="http://www.w3.org/2000/svg">
<path d="M9.93487 2.79194C9.5541 2.72158 9.20439 2.96462 9.1319 3.33636C9.05941 3.70811 9.30317 4.07106 9.67359 4.14381C10.7888 4.36126 11.65 5.22467 11.8682 6.3439C11.9304 6.66608 12.2139 6.90112 12.5405 6.90112C12.5844 6.90112 12.6282 6.89712 12.6728 6.88913C13.0432 6.81478 13.287 6.45263 13.2145 6.08008C12.8887 4.40843 11.6022 3.11731 9.93487 2.79194Z" fill="#34A853"/>
<path d="M9.88573 0.00634382C9.7073 -0.0192387 9.52806 0.0335252 9.38547 0.147047C9.2389 0.262169 9.14729 0.428455 9.12737 0.614727C9.08515 0.991269 9.35679 1.33184 9.73279 1.37421C12.3257 1.66361 14.3411 3.68382 14.6327 6.28524C14.6717 6.6338 14.964 6.89682 15.313 6.89682C15.3392 6.89682 15.3647 6.89522 15.391 6.89203C15.5734 6.87204 15.736 6.7817 15.8507 6.6378C15.9646 6.4939 16.0164 6.31482 15.9956 6.13175C15.6324 2.88597 13.1207 0.366897 9.88573 0.00634382Z" fill="#34A853"/>
<path fill-rule="evenodd" clip-rule="evenodd" d="M7.22428 8.77791C10.415 11.9683 11.1389 8.27737 13.1705 10.3079C15.1291 12.2662 16.2548 12.6586 13.7733 15.1398C13.4624 15.3896 11.4875 18.3954 4.54698 11.4557C-2.39441 4.51519 0.609174 2.53795 0.859043 2.22715C3.34658 -0.260937 3.73211 0.871494 5.69071 2.82985C7.7223 4.86119 4.0335 5.58753 7.22428 8.77791Z" fill="#34A853"/>
</svg>
