<svg width="20" height="20" viewBox="0 0 20 20" fill="none" xmlns="http://www.w3.org/2000/svg">
<path d="M6.66504 8.33333C6.66504 7.8731 7.03814 7.5 7.49837 7.5H12.4984C12.9586 7.5 13.3317 7.8731 13.3317 8.33333C13.3317 8.79357 12.9586 9.16667 12.4984 9.16667H7.49837C7.03814 9.16667 6.66504 8.79357 6.66504 8.33333Z" fill="#BF015D"/>
<path d="M7.49837 10.8326C7.03814 10.8326 6.66504 11.2057 6.66504 11.666C6.66504 12.1262 7.03814 12.4993 7.49837 12.4993H10.8317C11.2919 12.4993 11.665 12.1262 11.665 11.666C11.665 11.2057 11.2919 10.8326 10.8317 10.8326H7.49837Z" fill="#BF015D"/>
<path d="M1.6741e-05 10C1.6741e-05 4.47715 4.47718 0 10 0C15.5228 0 20 4.47715 20 10C20 15.5228 15.5228 20 10 20C8.17732 20 6.46648 19.5117 4.99363 18.6583L1.09688 19.9572C0.803617 20.055 0.480334 19.9823 0.257034 19.7687C0.0337502 19.5548 -0.0528334 19.235 0.0320832 18.9377L1.2181 14.7867C0.441333 13.3643 1.6741e-05 11.7326 1.6741e-05 10ZM10 1.66667C5.39765 1.66667 1.66668 5.39763 1.66668 10C1.66668 11.5551 2.09188 13.0084 2.83188 14.2528C2.9492 14.45 2.97995 14.687 2.9169 14.9077L2.06865 17.8765L4.8323 16.9553C5.06998 16.876 5.33072 16.908 5.54227 17.0422C6.8309 17.8598 8.35888 18.3333 10 18.3333C14.6023 18.3333 18.3333 14.6023 18.3333 10C18.3333 5.39763 14.6023 1.66667 10 1.66667Z" fill="#BF015D"/>
</svg>
