<svg width="16" height="16" viewBox="0 0 16 16" fill="none" xmlns="http://www.w3.org/2000/svg">
<path d="M6 4V3C6 2.05719 6 1.58579 6.2929 1.29289C6.5858 1 7.0572 1 8 1H13C13.9428 1 14.4142 1 14.7071 1.29289C15 1.58579 15 2.05719 15 3V8C15 8.9428 15 9.4142 14.7071 9.7071C14.4142 10 13.9428 10 13 10H12M3 15H8C8.9428 15 9.4142 15 9.7071 14.7071C10 14.4142 10 13.9428 10 13V8C10 7.0572 10 6.5858 9.7071 6.2929C9.4142 6 8.9428 6 8 6H3C2.05719 6 1.58579 6 1.29289 6.2929C1 6.5858 1 7.0572 1 8V13C1 13.9428 1 14.4142 1.29289 14.7071C1.58579 15 2.05719 15 3 15Z" stroke="#464455" stroke-width="1.5" stroke-linecap="round" stroke-linejoin="round"/>
</svg>
