<svg width="25" height="25" viewBox="0 0 20 20" fill="none" xmlns="http://www.w3.org/2000/svg">
<circle cx="10" cy="10" r="9.75" fill="black" stroke="black" stroke-width="0.5"/>
<path d="M6.1384 6.28592L6.20675 6.20675C6.45735 5.95614 6.84951 5.93336 7.12585 6.1384L7.20502 6.20675L10 9.00141L12.795 6.20675C13.0706 5.93108 13.5176 5.93108 13.7933 6.20675C14.0689 6.48241 14.0689 6.92935 13.7933 7.20502L10.9986 10L13.7933 12.795C14.0439 13.0456 14.0666 13.4377 13.8616 13.7141L13.7933 13.7933C13.5426 14.0439 13.1505 14.0666 12.8742 13.8616L12.795 13.7933L10 10.9986L7.20502 13.7933C6.92935 14.0689 6.48241 14.0689 6.20675 13.7933C5.93108 13.5176 5.93108 13.0706 6.20675 12.795L9.00141 10L6.20675 7.20502C5.95614 6.95441 5.93336 6.56226 6.1384 6.28592Z" fill="white"/>
</svg>
