<svg width="91" height="24" viewBox="0 0 91 24" fill="none" xmlns="http://www.w3.org/2000/svg">
<path d="M16.0273 8.81641C16.0273 10.5352 15.6758 12.1953 14.9727 13.7969C14.2695 15.3789 13.3223 16.7852 12.1309 18.0156C10.959 19.2461 9.58203 20.2324 8 20.9746C6.4375 21.6973 4.78711 22.0586 3.04883 22.0586H2.99023C2.63867 22.0586 2.3457 21.9023 2.11133 21.5898C1.89648 21.2578 1.71094 20.8477 1.55469 20.3594C1.39844 19.8711 1.28125 19.3242 1.20312 18.7188C1.125 18.1133 1.06641 17.5273 1.02734 16.9609C0.988281 16.375 0.96875 15.8574 0.96875 15.4082C0.96875 14.9395 0.96875 14.5879 0.96875 14.3535C0.96875 13.6895 0.978516 13.0352 0.998047 12.3906C1.01758 11.7266 1.04688 11.0625 1.08594 10.3984C1.08594 10.1836 1.0957 9.87109 1.11523 9.46094C1.1543 9.03125 1.19336 8.55273 1.23242 8.02539C1.27148 7.49805 1.32031 6.95117 1.37891 6.38477C1.4375 5.79883 1.49609 5.26172 1.55469 4.77344C1.63281 4.26562 1.70117 3.82617 1.75977 3.45508C1.83789 3.06445 1.92578 2.80078 2.02344 2.66406C2.27734 2.23438 2.66797 1.85352 3.19531 1.52148C3.72266 1.18945 4.28906 0.916016 4.89453 0.701172C5.51953 0.486328 6.14453 0.330078 6.76953 0.232422C7.41406 0.115234 7.9707 0.0566406 8.43945 0.0566406C9.72852 0.0566406 10.8418 0.300781 11.7793 0.789062C12.7363 1.25781 13.5273 1.90234 14.1523 2.72266C14.7969 3.52344 15.2656 4.45117 15.5586 5.50586C15.8711 6.56055 16.0273 7.66406 16.0273 8.81641ZM11.1055 9.66602C11.1055 9.23633 11.0273 8.79688 10.8711 8.34766C10.7148 7.89844 10.4902 7.48828 10.1973 7.11719C9.92383 6.74609 9.58203 6.45313 9.17188 6.23828C8.78125 6.00391 8.3418 5.88672 7.85352 5.88672C7.44336 5.88672 7.02344 5.98438 6.59375 6.17969C6.49609 6.23828 6.4082 6.42383 6.33008 6.73633C6.25195 7.0293 6.18359 7.39062 6.125 7.82031C6.08594 8.25 6.04688 8.71875 6.00781 9.22656C5.96875 9.73438 5.93945 10.2227 5.91992 10.6914C5.91992 11.1406 5.91016 11.541 5.89062 11.8926C5.89062 12.2441 5.89062 12.4785 5.89062 12.5957C5.89062 12.791 5.89062 13.084 5.89062 13.4746C5.89062 13.8457 5.90039 14.2168 5.91992 14.5879C5.95898 14.959 5.99805 15.2812 6.03711 15.5547C6.07617 15.8281 6.14453 15.9648 6.24219 15.9648C6.82812 15.9648 7.4043 15.7402 7.9707 15.291C8.55664 14.8223 9.08398 14.2559 9.55273 13.5918C10.0215 12.9277 10.3926 12.2344 10.666 11.5117C10.959 10.7891 11.1055 10.1738 11.1055 9.66602ZM29.7969 17.8691C29.7969 18.2207 29.7773 18.6797 29.7383 19.2461C29.7188 19.8125 29.6406 20.3691 29.5039 20.916C29.3672 21.4434 29.1523 21.9023 28.8594 22.293C28.5664 22.6836 28.1562 22.8789 27.6289 22.8789C26.9062 22.8789 26.3496 22.6445 25.959 22.1758C25.5684 21.707 25.3828 21.1211 25.4023 20.418C24.7773 20.9648 24.0645 21.3945 23.2637 21.707C22.4824 22.0195 21.6816 22.1758 20.8613 22.1758C20.2949 22.1758 19.7578 22.0391 19.25 21.7656C18.7422 21.4922 18.293 21.1406 17.9023 20.7109C17.5117 20.2812 17.1992 19.8027 16.9648 19.2754C16.7305 18.7285 16.6133 18.1914 16.6133 17.6641C16.6133 16.7266 16.8965 15.9062 17.4629 15.2031C18.0488 14.5 18.7617 13.9043 19.6016 13.416C20.4414 12.9082 21.3301 12.5078 22.2676 12.2148C23.2246 11.9219 24.0742 11.7266 24.8164 11.6289C24.8164 11.5312 24.8164 11.4434 24.8164 11.3652C24.8359 11.2871 24.8457 11.1992 24.8457 11.1016C24.8457 10.4961 24.6797 10.0078 24.3477 9.63672C24.0156 9.26562 23.5469 9.08008 22.9414 9.08008C22.4531 9.08008 22.0332 9.16797 21.6816 9.34375C21.3301 9.5 20.998 9.68555 20.6855 9.90039C20.373 10.0957 20.0605 10.2812 19.748 10.457C19.4355 10.6133 19.084 10.6914 18.6934 10.6914C18.2637 10.6914 17.8926 10.5547 17.5801 10.2812C17.2871 10.0078 17.1406 9.65625 17.1406 9.22656C17.1406 8.58203 17.3262 7.99609 17.6973 7.46875C18.0879 6.94141 18.5664 6.50195 19.1328 6.15039C19.7188 5.7793 20.3438 5.49609 21.0078 5.30078C21.6914 5.08594 22.3164 4.97852 22.8828 4.97852C23.4102 4.97852 23.9375 5.04688 24.4648 5.18359C24.9922 5.30078 25.4902 5.49609 25.959 5.76953C26.4277 6.02344 26.8477 6.3457 27.2188 6.73633C27.6094 7.10742 27.9219 7.54688 28.1562 8.05469C28.5078 8.77734 28.791 9.54883 29.0059 10.3691C29.2207 11.1699 29.3867 12 29.5039 12.8594C29.6211 13.6992 29.6992 14.5488 29.7383 15.4082C29.7773 16.248 29.7969 17.0684 29.7969 17.8691ZM25.1094 16.9316L25.0215 14.9395C24.9824 14.9395 24.9434 14.9395 24.9043 14.9395C24.8652 14.9199 24.8262 14.9102 24.7871 14.9102C24.5332 14.9102 24.2109 14.9785 23.8203 15.1152C23.4492 15.2324 23.0879 15.4082 22.7363 15.6426C22.3848 15.8574 22.082 16.1016 21.8281 16.375C21.5938 16.6484 21.4766 16.9316 21.4766 17.2246C21.4766 17.498 21.5742 17.6836 21.7695 17.7812C21.9648 17.8789 22.1895 17.9277 22.4434 17.9277C22.873 17.9277 23.332 17.8203 23.8203 17.6055C24.3086 17.3711 24.7383 17.1465 25.1094 16.9316ZM38.3809 23.0547C36.9941 23.0547 35.9102 22.8691 35.1289 22.498C34.3672 22.1465 33.791 21.6387 33.4004 20.9746C33.0293 20.3105 32.8047 19.5098 32.7266 18.5723C32.6484 17.6348 32.6094 16.5898 32.6094 15.4375C32.6094 14.5195 32.6387 13.6016 32.6973 12.6836C32.7559 11.7461 32.8438 10.75 32.9609 9.69531C32.6875 9.69531 32.4727 9.70508 32.3164 9.72461C32.1602 9.72461 32.0332 9.72461 31.9355 9.72461C31.3105 9.72461 30.7734 9.58789 30.3242 9.31445C29.8555 9.04102 29.6211 8.62109 29.6211 8.05469C29.6211 7.70312 29.7578 7.39062 30.0312 7.11719C30.2852 6.84375 30.6172 6.60937 31.0273 6.41406C31.4375 6.21875 31.877 6.0625 32.3457 5.94531C32.834 5.82812 33.293 5.75 33.7227 5.71094C33.7227 5.16406 33.7617 4.55859 33.8398 3.89453C33.918 3.23047 34.0547 2.61523 34.25 2.04883C34.4648 1.46289 34.748 0.974609 35.0996 0.583984C35.4512 0.193359 35.9004 -0.00195312 36.4473 -0.00195312C36.7598 -0.00195312 37.0332 0.0957031 37.2676 0.291016C37.5215 0.466797 37.7266 0.701172 37.8828 0.994141C38.0391 1.26758 38.1562 1.58008 38.2344 1.93164C38.3125 2.2832 38.3516 2.625 38.3516 2.95703C38.3516 3.34766 38.3223 3.74805 38.2637 4.1582C38.2051 4.56836 38.0977 5.07617 37.9414 5.68164C38.2734 5.64258 38.498 5.62305 38.6152 5.62305C38.7324 5.60352 38.8398 5.59375 38.9375 5.59375C39.2695 5.59375 39.6113 5.62305 39.9629 5.68164C40.334 5.74023 40.666 5.83789 40.959 5.97461C41.2715 6.11133 41.5254 6.29688 41.7207 6.53125C41.916 6.74609 42.0137 7.00977 42.0137 7.32227C42.0137 7.67383 41.8672 7.98633 41.5742 8.25977C41.3008 8.5332 40.9492 8.76758 40.5195 8.96289C40.0898 9.1582 39.6309 9.31445 39.1426 9.43164C38.6543 9.5293 38.1953 9.59766 37.7656 9.63672C37.6484 10.4375 37.5605 11.1797 37.502 11.8633C37.4629 12.5273 37.4141 13.2012 37.3555 13.8848C37.3164 14.2168 37.2773 14.5586 37.2383 14.9102C37.2188 15.2422 37.209 15.584 37.209 15.9355C37.209 16.1895 37.2188 16.4922 37.2383 16.8438C37.2578 17.1758 37.3262 17.498 37.4434 17.8105C37.5605 18.123 37.7461 18.3965 38 18.6309C38.2539 18.8457 38.6055 18.9531 39.0547 18.9531C39.3281 18.9531 39.6113 18.9336 39.9043 18.8945C40.1973 18.8359 40.4902 18.8066 40.7832 18.8066C41.291 18.8066 41.6523 18.9824 41.8672 19.334C42.1016 19.6855 42.2188 20.1348 42.2188 20.6816C42.2188 21.0918 42.0918 21.4531 41.8379 21.7656C41.6035 22.0586 41.3008 22.293 40.9297 22.4688C40.5586 22.6641 40.1387 22.8105 39.6699 22.9082C39.2207 23.0059 38.791 23.0547 38.3809 23.0547ZM55.0801 16.7852C55.0801 17.4492 54.8652 18.1035 54.4355 18.748C54.0254 19.373 53.498 19.9395 52.8535 20.4473C52.2285 20.9355 51.5547 21.3359 50.832 21.6484C50.1094 21.9414 49.4453 22.0879 48.8398 22.0879C47.8047 22.0879 46.877 21.834 46.0566 21.3262C45.2559 20.7988 44.582 20.1348 44.0352 19.334C43.4883 18.5332 43.0684 17.6543 42.7754 16.6973C42.502 15.7207 42.3652 14.7734 42.3652 13.8555C42.3652 12.8789 42.502 11.834 42.7754 10.7207C43.0488 9.60742 43.459 8.58203 44.0059 7.64453C44.5723 6.70703 45.2754 5.92578 46.1152 5.30078C46.9746 4.67578 47.9902 4.36328 49.1621 4.36328C49.8262 4.36328 50.4609 4.48047 51.0664 4.71484C51.6719 4.92969 52.1992 5.24219 52.6484 5.65234C53.0977 6.0625 53.459 6.55078 53.7324 7.11719C54.0059 7.68359 54.1426 8.31836 54.1426 9.02148C54.1426 9.93945 53.9473 10.7988 53.5566 11.5996C53.166 12.4004 52.6484 13.0938 52.0039 13.6797C51.3594 14.2656 50.6172 14.7441 49.7773 15.1152C48.9375 15.4668 48.0781 15.6621 47.1992 15.7012C47.2773 16.2676 47.502 16.6777 47.873 16.9316C48.2637 17.1855 48.7227 17.3125 49.25 17.3125C49.6406 17.3125 50.0215 17.2148 50.3926 17.0195C50.7637 16.8242 51.125 16.6094 51.4766 16.375C51.8281 16.1211 52.1699 15.8965 52.502 15.7012C52.8535 15.5059 53.2051 15.4082 53.5566 15.4082C53.9473 15.4082 54.2988 15.5352 54.6113 15.7891C54.9238 16.043 55.0801 16.375 55.0801 16.7852ZM50.334 9.60742C50.334 9.35352 50.2656 9.08984 50.1289 8.81641C49.9922 8.54297 49.7773 8.40625 49.4844 8.40625C49.0547 8.40625 48.6934 8.52344 48.4004 8.75781C48.1074 8.97266 47.8633 9.25586 47.668 9.60742C47.4727 9.93945 47.3164 10.3008 47.1992 10.6914C47.1016 11.082 47.043 11.4434 47.0234 11.7754C47.2969 11.7168 47.6191 11.6387 47.9902 11.541C48.3809 11.4434 48.7422 11.3164 49.0742 11.1602C49.4258 10.9844 49.7188 10.7695 49.9531 10.5156C50.207 10.2617 50.334 9.95898 50.334 9.60742ZM76.291 18.8066C76.2324 19.3145 76.1445 19.8125 76.0273 20.3008C75.9297 20.7891 75.8027 21.2285 75.6465 21.6191C75.4902 21.9902 75.2852 22.2832 75.0312 22.498C74.7969 22.7324 74.5234 22.8496 74.2109 22.8496C73.8984 22.8496 73.6152 22.6055 73.3613 22.1172C73.1074 21.6484 72.8633 21.0234 72.6289 20.2422C72.4141 19.4414 72.209 18.543 72.0137 17.5469C71.8379 16.5508 71.6719 15.5449 71.5156 14.5293C71.3789 13.4941 71.2617 12.4883 71.1641 11.5117C71.0664 10.5352 70.9883 9.68555 70.9297 8.96289C70.8125 9.70508 70.6758 10.5352 70.5195 11.4531C70.3633 12.3711 70.1777 13.3086 69.9629 14.2656C69.748 15.2031 69.5137 16.1309 69.2598 17.0488C69.0059 17.9473 68.7324 18.7578 68.4395 19.4805C68.1465 20.1836 67.834 20.75 67.502 21.1797C67.1699 21.6094 66.8184 21.8242 66.4473 21.8242C66.1152 21.8242 65.7832 21.5996 65.4512 21.1504C65.1191 20.7012 64.7969 20.1152 64.4844 19.3926C64.1719 18.6504 63.8789 17.8301 63.6055 16.9316C63.332 16.0332 63.0781 15.1348 62.8438 14.2363C62.6094 13.3184 62.4043 12.459 62.2285 11.6582C62.0527 10.8379 61.916 10.1543 61.8184 9.60742C61.8184 10.0176 61.8086 10.4766 61.7891 10.9844C61.7891 11.4727 61.7891 11.8242 61.7891 12.0391C61.7891 12.1367 61.7793 12.459 61.7598 13.0059C61.7598 13.5527 61.7305 14.207 61.6719 14.9688C61.6133 15.7305 61.5254 16.5508 61.4082 17.4297C61.291 18.2891 61.1152 19.0898 60.8809 19.832C60.666 20.5742 60.3926 21.1992 60.0605 21.707C59.7285 22.2148 59.3184 22.4883 58.8301 22.5273C58.4395 22.3516 58.1074 22.0586 57.834 21.6484C57.5801 21.2188 57.3652 20.7207 57.1895 20.1543C57.0137 19.5879 56.877 18.9824 56.7793 18.3379C56.6816 17.6934 56.6035 17.0684 56.5449 16.4629C56.4863 15.8379 56.4473 15.2617 56.4277 14.7344C56.4277 14.207 56.4277 13.7773 56.4277 13.4453C56.4277 12.8594 56.457 12.127 56.5156 11.248C56.5938 10.3496 56.7109 9.41211 56.8672 8.43555C57.0234 7.45898 57.2285 6.48242 57.4824 5.50586C57.7363 4.5293 58.0391 3.66016 58.3906 2.89844C58.7617 2.11719 59.1816 1.48242 59.6504 0.994141C60.1387 0.505859 60.6953 0.261719 61.3203 0.261719C61.6133 0.261719 61.9258 0.427734 62.2578 0.759766C62.5898 1.0918 62.9219 1.53125 63.2539 2.07812C63.5859 2.60547 63.9082 3.20117 64.2207 3.86523C64.5332 4.5293 64.8262 5.20312 65.0996 5.88672C65.3926 6.55078 65.6465 7.19531 65.8613 7.82031C66.0762 8.42578 66.252 8.94336 66.3887 9.37305C66.5449 8.9043 66.7402 8.35742 66.9746 7.73242C67.209 7.10742 67.4629 6.46289 67.7363 5.79883C68.0293 5.11523 68.3418 4.45117 68.6738 3.80664C69.0254 3.14258 69.3867 2.55664 69.7578 2.04883C70.1289 1.52148 70.5 1.10156 70.8711 0.789062C71.2617 0.457031 71.6523 0.291016 72.043 0.291016C72.7266 0.291016 73.3125 0.544922 73.8008 1.05273C74.2891 1.56055 74.6992 2.22461 75.0312 3.04492C75.3633 3.8457 75.627 4.75391 75.8223 5.76953C76.0176 6.76562 76.1641 7.76172 76.2617 8.75781C76.3789 9.73438 76.4473 10.6523 76.4668 11.5117C76.5059 12.3711 76.5254 13.0645 76.5254 13.5918C76.5254 13.8066 76.5254 14.0996 76.5254 14.4707C76.5254 14.8418 76.5156 15.2617 76.4961 15.7305C76.4961 16.1992 76.4766 16.6973 76.4375 17.2246C76.3984 17.752 76.3496 18.2793 76.291 18.8066ZM90.8809 16.7852C90.8809 17.4492 90.666 18.1035 90.2363 18.748C89.8262 19.373 89.2988 19.9395 88.6543 20.4473C88.0293 20.9355 87.3555 21.3359 86.6328 21.6484C85.9102 21.9414 85.2461 22.0879 84.6406 22.0879C83.6055 22.0879 82.6777 21.834 81.8574 21.3262C81.0566 20.7988 80.3828 20.1348 79.8359 19.334C79.2891 18.5332 78.8691 17.6543 78.5762 16.6973C78.3027 15.7207 78.166 14.7734 78.166 13.8555C78.166 12.8789 78.3027 11.834 78.5762 10.7207C78.8496 9.60742 79.2598 8.58203 79.8066 7.64453C80.373 6.70703 81.0762 5.92578 81.916 5.30078C82.7754 4.67578 83.791 4.36328 84.9629 4.36328C85.627 4.36328 86.2617 4.48047 86.8672 4.71484C87.4727 4.92969 88 5.24219 88.4492 5.65234C88.8984 6.0625 89.2598 6.55078 89.5332 7.11719C89.8066 7.68359 89.9434 8.31836 89.9434 9.02148C89.9434 9.93945 89.748 10.7988 89.3574 11.5996C88.9668 12.4004 88.4492 13.0938 87.8047 13.6797C87.1602 14.2656 86.418 14.7441 85.5781 15.1152C84.7383 15.4668 83.8789 15.6621 83 15.7012C83.0781 16.2676 83.3027 16.6777 83.6738 16.9316C84.0645 17.1855 84.5234 17.3125 85.0508 17.3125C85.4414 17.3125 85.8223 17.2148 86.1934 17.0195C86.5645 16.8242 86.9258 16.6094 87.2773 16.375C87.6289 16.1211 87.9707 15.8965 88.3027 15.7012C88.6543 15.5059 89.0059 15.4082 89.3574 15.4082C89.748 15.4082 90.0996 15.5352 90.4121 15.7891C90.7246 16.043 90.8809 16.375 90.8809 16.7852ZM86.1348 9.60742C86.1348 9.35352 86.0664 9.08984 85.9297 8.81641C85.793 8.54297 85.5781 8.40625 85.2852 8.40625C84.8555 8.40625 84.4941 8.52344 84.2012 8.75781C83.9082 8.97266 83.6641 9.25586 83.4688 9.60742C83.2734 9.93945 83.1172 10.3008 83 10.6914C82.9023 11.082 82.8438 11.4434 82.8242 11.7754C83.0977 11.7168 83.4199 11.6387 83.791 11.541C84.1816 11.4434 84.543 11.3164 84.875 11.1602C85.2266 10.9844 85.5195 10.7695 85.7539 10.5156C86.0078 10.2617 86.1348 9.95898 86.1348 9.60742Z" fill="black"/>
</svg>
