<svg width="15" height="16" viewBox="0 0 13 14" fill="none" xmlns="http://www.w3.org/2000/svg">
<path fill-rule="evenodd" clip-rule="evenodd" d="M11.4828 4.66958C11.7632 4.69191 11.9723 4.92896 11.9499 5.20015C11.9458 5.2448 11.5779 9.65153 11.366 11.5C11.2343 12.6471 10.4508 13.3451 9.26805 13.3662C8.363 13.3813 7.48987 13.3898 6.63642 13.3898C5.71644 13.3898 4.81954 13.3799 3.93214 13.3622C2.79693 13.3405 2.01138 12.6287 1.88306 11.5046C1.66919 9.63971 1.30323 5.24414 1.29984 5.20015C1.27675 4.92896 1.48587 4.69125 1.76628 4.66958C2.04261 4.66236 2.29247 4.85016 2.31487 5.1207C2.31704 5.1492 2.46665 6.94421 2.62968 8.72022L2.66242 9.07464C2.74454 9.95741 2.82777 10.8057 2.89538 11.3962C2.96803 12.0351 3.32448 12.3648 3.95319 12.3773C5.65058 12.4121 7.38259 12.414 9.24972 12.3812C9.91781 12.3687 10.279 12.0456 10.3537 11.3916C10.5642 9.55697 10.9308 5.16535 10.9349 5.1207C10.9573 4.85016 11.2051 4.66105 11.4828 4.66958ZM8.06141 0.257141C8.68469 0.257141 9.23261 0.663603 9.39352 1.24604L9.56597 2.07407C9.6217 2.34551 9.868 2.54374 10.1532 2.54809L12.3813 2.54817C12.6624 2.54817 12.8905 2.7688 12.8905 3.04065C12.8905 3.3125 12.6624 3.53313 12.3813 3.53313L10.1731 3.53303C10.1697 3.5331 10.1662 3.53313 10.1628 3.53313L10.1462 3.53247L3.10247 3.53305C3.097 3.5331 3.09152 3.53313 3.08603 3.53313L3.07557 3.53247L0.867614 3.53313C0.586527 3.53313 0.358398 3.3125 0.358398 3.04065C0.358398 2.7688 0.586527 2.54817 0.867614 2.54817L3.09526 2.54751L3.16385 2.54331C3.41934 2.51125 3.63166 2.3236 3.68351 2.07407L3.8485 1.27559C4.0162 0.663603 4.56411 0.257141 5.18739 0.257141H8.06141ZM8.06141 1.2421H5.18739C5.02445 1.2421 4.88119 1.34782 4.83977 1.49951L4.68157 2.26778C4.66147 2.36509 4.63219 2.45887 4.59472 2.54834H8.65428C8.61677 2.45887 8.58743 2.36509 8.56723 2.26778L8.40224 1.4693C8.36762 1.34782 8.22436 1.2421 8.06141 1.2421Z" fill="black"/>
</svg>
