<svg width="10" height="11" viewBox="0 0 10 11" fill="none" xmlns="http://www.w3.org/2000/svg">
<path fill-rule="evenodd" clip-rule="evenodd" d="M4.67422 3.48772C3.80133 2.68751 2.43295 3.05334 1.27515 2.92451C1.46426 2.32332 1.71696 1.66845 1.99526 0.976412C2.24136 0.363655 2.24383 0.364481 2.70134 0.462753C2.78557 0.480921 2.88137 0.501567 2.97799 0.520561L4.50245 0.821158C4.57925 0.842629 4.63623 0.876488 4.67504 0.921908C4.71468 0.968153 4.74028 1.02926 4.75267 1.10606C4.74524 1.32904 4.74193 1.57595 4.73863 1.83361C4.73202 2.35553 4.72459 2.92782 4.67422 3.48772ZM6.98981 9.98443C6.84033 10.0133 6.69582 9.91506 6.66691 9.76558C6.63801 9.61611 6.73628 9.47159 6.88575 9.44269L8.04768 9.21807L7.55136 6.79182C7.38207 6.80833 7.21938 6.80586 7.06496 6.78438C6.72472 6.73731 6.42412 6.60105 6.16234 6.37808C5.43644 5.7612 5.15402 4.75453 5.04005 3.70409C4.92609 4.7537 4.64366 5.76037 3.91777 6.37808C3.65516 6.60105 3.35456 6.73731 3.01515 6.78438C2.86072 6.80586 2.69886 6.80833 2.52874 6.79182L1.99857 9.38571L3.11507 9.60207C3.26455 9.63098 3.36282 9.77549 3.33391 9.92497C3.30501 10.0744 3.16049 10.1727 3.01102 10.1438L0.223886 9.60455C0.074413 9.57565 -0.0238593 9.43113 0.00504433 9.28166C0.0339479 9.13218 0.178466 9.03391 0.327939 9.06281L1.45683 9.28083L1.98866 6.68198C1.96884 6.6762 1.94902 6.6696 1.92837 6.66299C1.92507 6.66216 1.92177 6.66134 1.91846 6.65969C0.827558 6.30458 0.476586 5.52997 0.55091 4.46714C0.620278 3.47121 1.07861 2.22257 1.63686 0.832719C2.00517 -0.0822861 2.00848 -0.0814602 2.78144 0.084529C2.85659 0.101045 2.94248 0.119213 3.05148 0.140685L4.57925 0.442108C4.58338 0.442934 4.5875 0.44376 4.59163 0.444585C4.75102 0.486702 4.87489 0.562677 4.96738 0.670033C4.99463 0.70224 5.01858 0.736099 5.04005 0.772435C5.0607 0.736099 5.08547 0.701414 5.11272 0.670033C5.20522 0.562677 5.32991 0.486702 5.48847 0.444585C5.4926 0.44376 5.49673 0.442934 5.50086 0.442108L7.02862 0.140685C7.13763 0.119213 7.22351 0.101045 7.29866 0.084529C8.07163 -0.0814602 8.07493 -0.0822861 8.44242 0.832719C9.0015 2.22257 9.459 3.47121 9.52837 4.46714C9.60269 5.52914 9.25172 6.30458 8.16082 6.65969C8.15751 6.66051 8.15421 6.66134 8.15091 6.66299C8.13109 6.6696 8.11044 6.67538 8.09062 6.68198L8.58776 9.11401L9.67206 8.90426C9.82154 8.87535 9.96605 8.97363 9.99496 9.1231C10.0239 9.27257 9.92559 9.41709 9.77611 9.44599L6.98981 9.98443ZM6.1194 4.91639C6.0971 4.8594 6.12518 4.79582 6.18216 4.77352C6.23914 4.75122 6.30273 4.7793 6.32502 4.83628C6.46624 5.19551 6.66196 5.45977 6.90475 5.64145C7.14671 5.82148 7.43823 5.92141 7.77268 5.95031C7.83379 5.95526 7.87839 6.00894 7.87343 6.07005C7.86848 6.13116 7.8148 6.17576 7.75369 6.1708C7.37877 6.13777 7.04927 6.02463 6.77262 5.819C6.49762 5.61255 6.27713 5.31608 6.1194 4.91639ZM5.41415 3.57856C6.66856 3.01288 7.96923 2.4026 8.63731 2.42324C8.47628 1.96491 8.28717 1.48016 8.08484 0.976412C7.83875 0.363655 7.83627 0.364481 7.37877 0.462753C7.29453 0.480921 7.19874 0.501567 7.10212 0.520561L5.57849 0.821158C5.50168 0.842629 5.4447 0.876488 5.40589 0.921908C5.36625 0.968153 5.34065 1.02926 5.32826 1.10606C5.33569 1.32904 5.339 1.57595 5.3423 1.83361C5.34808 2.3836 5.35551 2.98975 5.41415 3.57856ZM4.02017 4.41842C4.02843 4.35813 4.08458 4.31602 4.14487 4.3251C4.20515 4.33336 4.24727 4.38951 4.23818 4.4498C4.17625 4.87427 4.03008 5.21368 3.80793 5.47712C3.58579 5.74138 3.29097 5.92719 2.93422 6.04445C2.87641 6.06345 2.81365 6.03206 2.79466 5.97426C2.77566 5.91645 2.80704 5.85369 2.86485 5.83469C3.18444 5.72982 3.4454 5.5663 3.63947 5.33507C3.83518 5.10385 3.96401 4.8016 4.02017 4.41842Z" fill="#363636"/>
</svg>
