<svg width="12" height="16" viewBox="0 0 12 16" fill="none" xmlns="http://www.w3.org/2000/svg">
<path d="M2.18108 0C0.976504 0 0 0.976504 0 2.18108V13.0865C0 14.2911 0.976504 15.2676 2.18108 15.2676H3.43131C3.28408 14.9413 3.22974 14.5661 3.30316 14.177H2.18108C1.5788 14.177 1.09054 13.6888 1.09054 13.0865V2.18108C1.09054 1.5788 1.5788 1.09054 2.18108 1.09054H5.45271V3.8169C5.45271 4.72033 6.18509 5.45271 7.08852 5.45271H9.81488V6.61016C10.1731 6.52867 10.5449 6.52161 10.9054 6.58901V4.81388C10.9054 4.38004 10.7331 3.96397 10.4263 3.65719L7.24823 0.479119C6.94145 0.172349 6.52538 0 6.09154 0H2.18108ZM9.58903 4.36217H7.08852C6.78738 4.36217 6.54325 4.11804 6.54325 3.8169V1.3164L9.58903 4.36217Z" fill="#212121"/>
<path d="M9.29166 8.09755C9.91109 7.47806 10.9155 7.47806 11.535 8.09755C12.1544 8.71703 12.1544 9.72141 11.535 10.3409L7.43863 14.4373C7.1998 14.6761 6.90055 14.8454 6.57287 14.9275L5.30235 15.245C4.74982 15.3832 4.24934 14.8826 4.38747 14.3302L4.7051 13.0597C4.78702 12.732 4.95646 12.4327 5.19529 12.1939L9.29166 8.09755Z" fill="#212121"/>
</svg>
