<svg width="12" height="12" viewBox="0 0 9 9" fill="none" xmlns="http://www.w3.org/2000/svg">
<path fill-rule="evenodd" clip-rule="evenodd" d="M0.648722 6.84797L0.0226619 8.51744C-0.00137851 8.58169 -0.00641773 8.65149 0.00814619 8.71853C0.0227101 8.78556 0.0562615 8.84699 0.104793 8.89547C0.153325 8.94395 0.214787 8.97744 0.281837 8.99193C0.348887 9.00643 0.418692 9.00132 0.482916 8.97721L2.15193 8.35116C2.34296 8.27961 2.51647 8.168 2.66078 8.02384L7.49536 3.18934C7.49536 3.18934 7.32669 2.68383 6.82165 2.17832C6.31661 1.67328 5.81062 1.50462 5.81062 1.50462L0.976045 6.33912C0.831877 6.48344 0.720269 6.65694 0.648722 6.84797ZM6.4848 0.830449L7.14374 0.171523C7.2619 0.0533644 7.4196 -0.0219142 7.58446 0.00571971C7.81649 0.0438354 8.17144 0.159135 8.50592 0.494077C8.84086 0.829019 8.95616 1.1835 8.99428 1.41553C9.02191 1.58038 8.94664 1.73808 8.82847 1.85624L8.16906 2.51516C8.16906 2.51516 8.00088 2.01013 7.49536 1.5051C6.99032 0.999111 6.4848 0.830449 6.4848 0.830449Z" fill="black"/>
</svg>
