<svg width="15" height="16" viewBox="0 0 12 11" fill="none" xmlns="http://www.w3.org/2000/svg">
<path d="M11.4991 10.6151C11.5959 10.6151 11.6875 10.5726 11.7484 10.4994C11.8094 10.4262 11.8331 10.3302 11.8131 10.238L11.611 9.30692C11.7261 9.19852 11.7985 9.04718 11.7985 8.8789C11.7985 8.70175 11.7174 8.54463 11.5916 8.43547V5.20208L10.7813 5.69016V8.43547C10.6555 8.54463 10.5744 8.70175 10.5744 8.8789C10.5744 9.04719 10.6468 9.19855 10.7619 9.30692L10.5597 10.238C10.5397 10.3302 10.5635 10.4262 10.6245 10.4994C10.6854 10.5726 10.777 10.6151 10.8738 10.6151H11.4991ZM11.7737 3.31527L6.5021 0.139029C6.34771 0.0464664 6.17367 0 5.99963 0C5.82559 0 5.65142 0.0464275 5.49797 0.139029L0.22626 3.31527C0.085494 3.40005 0 3.54978 0 3.71094C0 3.87212 0.085494 4.0219 0.22626 4.10682L5.49795 7.28309C5.6514 7.37575 5.82556 7.42212 5.99961 7.42212C6.17365 7.42212 6.34771 7.37569 6.50208 7.28309L11.7737 4.10682C11.9145 4.02194 12 3.87212 12 3.71094C12 3.54978 11.9145 3.4 11.7737 3.31527ZM5.99961 8.21078C5.67123 8.21078 5.35073 8.12201 5.07136 7.95372L1.99636 6.10082V9.29133C1.99636 10.2356 3.78952 11 5.99961 11C8.21048 11 10.0035 10.2356 10.0035 9.29133V6.10082L6.92861 7.95372C6.64925 8.12201 6.32799 8.21078 5.99961 8.21078Z" fill="#363636"/>
</svg>
