<svg width="8" height="12" viewBox="0 0 8 12" fill="none" xmlns="http://www.w3.org/2000/svg">
<path d="M4.19347 2.26975C4.73692 2.26975 5.17747 1.8292 5.17747 1.28576C5.17747 0.742308 4.73692 0.301758 4.19347 0.301758C3.65002 0.301758 3.20947 0.742308 3.20947 1.28576C3.20947 1.8292 3.65002 2.26975 4.19347 2.26975Z" fill="#363636"/>
<path d="M7.77252 4.70197C7.55615 4.57834 7.28048 4.65353 7.15685 4.86993C7.08403 4.99736 7.08066 5.14519 7.134 5.27058L7.06294 5.39495L6.38631 4.67787L5.82705 2.96257C5.77117 2.79116 5.61959 2.67785 5.45082 2.66218V2.656H3.26901C3.26387 2.65377 3.25904 2.65118 3.25376 2.64912L1.93721 2.13316L1.82534 0.85671L2.06496 0.857682C2.14694 0.966519 2.27664 1.03743 2.42344 1.03806C2.67267 1.03905 2.87553 0.837864 2.87652 0.588659C2.87752 0.33943 2.67633 0.136574 2.4271 0.135578C2.28034 0.134976 2.15002 0.204848 2.06718 0.313013L1.76843 0.311809C1.71 0.11701 1.52124 -0.0165987 1.31063 0.00166804C1.12805 0.0176891 0.981686 0.143565 0.930521 0.308429L0.811567 0.307943C0.729586 0.199106 0.59989 0.128169 0.453084 0.127567C0.203902 0.126526 0.00102253 0.327738 3.85094e-06 0.576944C-0.00101483 0.826173 0.200197 1.02903 0.449426 1.03002C0.596186 1.0306 0.726507 0.960754 0.809344 0.852589L0.945454 0.853121L1.08805 2.48018C1.10258 2.64593 1.20973 2.78914 1.36464 2.84982L2.93403 3.46485C2.93477 3.46515 2.93553 3.46534 2.93632 3.46562V6.5355L1.85036 11.1535C1.77836 11.4597 1.96823 11.7664 2.27448 11.8384C2.5809 11.9104 2.88743 11.7205 2.95943 11.4143L4.06087 6.73057H4.32629L5.42773 11.4143C5.49973 11.7205 5.80631 11.9104 6.11268 11.8384C6.41895 11.7664 6.60882 11.4597 6.5368 11.1535L5.45082 6.53552V4.63517L5.58371 5.04283C5.60376 5.10435 5.63719 5.16065 5.68159 5.2077L6.60859 6.19014L6.51112 6.36075C6.37601 6.37846 6.25041 6.45643 6.1776 6.58388C6.05397 6.80026 6.12916 7.07593 6.34556 7.19956C6.56194 7.32319 6.83761 7.24799 6.96124 7.03159C7.03405 6.90417 7.03743 6.75634 6.98409 6.63095L7.04 6.53309C7.18213 6.56284 7.32676 6.52128 7.4308 6.42314C7.60497 6.25876 7.61437 5.98557 7.45349 5.80939L7.60697 5.54076C7.74208 5.52305 7.86768 5.44505 7.94049 5.31762C8.06412 5.10124 7.9889 4.82562 7.77252 4.70197Z" fill="#363636"/>
</svg>
