<svg width="25" height="25" viewBox="0 0 16 17" fill="none" xmlns="http://www.w3.org/2000/svg">
<path fill-rule="evenodd" clip-rule="evenodd" d="M2.51786 4.4018H1.71401C1.39842 4.4018 1.14258 4.12997 1.14258 3.79466C1.14258 3.45934 1.39842 3.18751 1.71401 3.18751H2.51786C2.75888 2.39481 3.45914 1.82144 4.28543 1.82144C5.11173 1.82144 5.81201 2.39481 6.05303 3.18751H14.2854C14.601 3.18751 14.8569 3.45934 14.8569 3.79466C14.8569 4.12997 14.601 4.4018 14.2854 4.4018H6.05303C5.81201 5.1945 5.11173 5.76787 4.28543 5.76787C3.45914 5.76787 2.75888 5.1945 2.51786 4.4018ZM3.28543 3.79466C3.28543 3.20785 3.73315 2.73216 4.28543 2.73216C4.83772 2.73216 5.28543 3.20785 5.28543 3.79466C5.28543 4.38146 4.83772 4.85716 4.28543 4.85716C3.73315 4.85716 3.28543 4.38146 3.28543 3.79466Z" fill="black"/>
<path fill-rule="evenodd" clip-rule="evenodd" d="M1.71401 9.25892H9.96875C10.2098 10.0516 10.91 10.625 11.7363 10.625C12.5626 10.625 13.2629 10.0516 13.5039 9.25892H14.2854C14.601 9.25892 14.8569 8.9871 14.8569 8.65177C14.8569 8.31645 14.601 8.04463 14.2854 8.04463H13.5039C13.2629 7.25194 12.5626 6.67856 11.7363 6.67856C10.91 6.67856 10.2098 7.25194 9.96875 8.04463H1.71401C1.39842 8.04463 1.14258 8.31645 1.14258 8.65177C1.14258 8.9871 1.39842 9.25892 1.71401 9.25892ZM11.7363 7.58927C11.1841 7.58927 10.7363 8.06497 10.7363 8.65177C10.7363 9.23858 11.1841 9.71427 11.7363 9.71427C12.2886 9.71427 12.7363 9.23858 12.7363 8.65177C12.7363 8.06497 12.2886 7.58927 11.7363 7.58927Z" fill="black"/>
<path fill-rule="evenodd" clip-rule="evenodd" d="M5.94641 14.1161H1.71401C1.39842 14.1161 1.14258 13.8442 1.14258 13.5089C1.14258 13.1736 1.39842 12.9018 1.71401 12.9018H5.94641C6.18743 12.1091 6.88772 11.5357 7.71401 11.5357C8.54029 11.5357 9.24058 12.1091 9.48161 12.9018H14.2854C14.601 12.9018 14.8569 13.1736 14.8569 13.5089C14.8569 13.8442 14.601 14.1161 14.2854 14.1161H9.48161C9.24058 14.9087 8.54029 15.4821 7.71401 15.4821C6.88772 15.4821 6.18743 14.9087 5.94641 14.1161ZM6.71401 13.5089C6.71401 12.9221 7.16172 12.4464 7.71401 12.4464C8.26629 12.4464 8.71401 12.9221 8.71401 13.5089C8.71401 14.0957 8.26629 14.5714 7.71401 14.5714C7.16172 14.5714 6.71401 14.0957 6.71401 13.5089Z" fill="black"/>
</svg>
