<svg width="22" height="24" viewBox="0 0 8 12" fill="none" xmlns="http://www.w3.org/2000/svg">
<path fill-rule="evenodd" clip-rule="evenodd" d="M4 2.43853C4.75571 2.43853 5.36836 1.89265 5.36836 1.21927C5.36836 0.545884 4.75571 0 4 0C3.24428 0 2.63163 0.545884 2.63163 1.21927C2.63163 1.89265 3.24428 2.43853 4 2.43853ZM1.21478 6.77861L2.34802 4.35361V5.18824V8.13017V11.5052C2.34802 11.7774 2.60282 12 2.91425 12C3.22567 12 3.48048 11.7774 3.48048 11.5052V8.13017H4.55168V11.5052C4.55168 11.7774 4.80649 12 5.11789 12C5.42933 12 5.68414 11.7774 5.68414 11.5052V8.13017V5.18824V4.52135L6.78902 6.7866C6.928 7.07152 7.30003 7.20217 7.61993 7.07838C7.93984 6.95459 8.08652 6.62325 7.94754 6.33832L6.57985 3.53432C6.42158 3.20987 6.06227 2.99998 5.66515 2.99998H3.65349H2.78737H2.27759C1.87484 2.99998 1.51162 3.21576 1.35686 3.54692L0.0486541 6.34631C-0.0853782 6.63311 0.0670197 6.96239 0.389036 7.08176C0.711052 7.20116 1.08075 7.06541 1.21478 6.77861Z" fill="#363636"/>
</svg>
