<svg width="11" height="11" viewBox="0 0 11 11" fill="none" xmlns="http://www.w3.org/2000/svg">
<path d="M8.82565 0H7.54658C7.40532 0 7.29077 0.124681 7.29077 0.278481V0.311291L9.08147 1.87078V0.278481C9.08147 0.124681 8.96696 0 8.82565 0Z" fill="#363636"/>
<path fill-rule="evenodd" clip-rule="evenodd" d="M4.86035 3.62034C4.86035 3.23583 5.14671 2.92413 5.49989 2.92413C5.85311 2.92413 6.13942 3.23583 6.13942 3.62034C6.13942 4.00486 5.85311 4.31654 5.49989 4.31654C5.14671 4.31654 4.86035 4.00486 4.86035 3.62034Z" fill="#363636"/>
<path fill-rule="evenodd" clip-rule="evenodd" d="M9.97672 4.43367L10.3766 4.78188C10.5421 4.92597 10.7835 4.89678 10.9159 4.7166C11.0483 4.53648 11.0215 4.2736 10.856 4.12946L6.69853 0.508828C5.99785 -0.101413 5.00218 -0.101413 4.30146 0.508828L0.144027 4.12946C-0.0214584 4.2736 -0.0482882 4.53648 0.0841004 4.7166C0.216484 4.89678 0.457956 4.92597 0.623442 4.78188L1.02327 4.43367V10.1645H0.383735C0.171809 10.1645 1.45893e-05 10.3516 1.45893e-05 10.5822C1.45893e-05 10.8129 0.171809 11 0.383735 11H10.6163C10.8282 11 11 10.8129 11 10.5822C11 10.3516 10.8282 10.1645 10.6163 10.1645H9.97672V4.43367ZM4.09303 3.62023C4.09303 2.77432 4.72293 2.08858 5.49999 2.08858C6.27705 2.08858 6.90696 2.77432 6.90696 3.62023C6.90696 4.46614 6.27705 5.15187 5.49999 5.15187C4.72293 5.15187 4.09303 4.46614 4.09303 3.62023ZM5.52526 5.70883C5.86544 5.70883 6.1585 5.70878 6.39324 5.74314C6.64475 5.77996 6.88588 5.863 7.08143 6.07587C7.27702 6.2888 7.35326 6.55124 7.38707 6.82509C7.41665 7.06459 7.41849 7.36 7.41859 7.70108C7.41859 7.72386 7.41859 7.74681 7.41859 7.76992V10.1645H6.65115V7.79744C6.65115 7.3918 6.65033 7.12958 6.62649 6.93638C6.60413 6.7552 6.56801 6.69844 6.5388 6.66664C6.50958 6.63484 6.4574 6.59551 6.29096 6.57112C6.11348 6.54517 5.87261 6.54427 5.49999 6.54427C5.12737 6.54427 4.8865 6.54517 4.70906 6.57112C4.54263 6.59551 4.49045 6.63484 4.46123 6.66664C4.43202 6.69844 4.39589 6.7552 4.37352 6.93638C4.34966 7.12958 4.34884 7.3918 4.34884 7.79744V10.1645H3.5814V7.76992C3.58138 7.39966 3.58137 7.08057 3.61292 6.82509C3.64674 6.55124 3.723 6.2888 3.91857 6.07587C4.11414 5.863 4.35525 5.77996 4.60679 5.74314C4.84147 5.70878 5.13458 5.70883 5.47477 5.70883H5.52526Z" fill="#363636"/>
<path fill-rule="evenodd" clip-rule="evenodd" d="M4.86035 3.62034C4.86035 3.23583 5.14671 2.92413 5.49989 2.92413C5.85311 2.92413 6.13942 3.23583 6.13942 3.62034C6.13942 4.00486 5.85311 4.31654 5.49989 4.31654C5.14671 4.31654 4.86035 4.00486 4.86035 3.62034Z" fill="#363636"/>
</svg>
