<svg width="15" height="15" viewBox="0 0 12 12" fill="none" xmlns="http://www.w3.org/2000/svg">
<path d="M9.02849 3.306C9.1714 3.43693 9.19222 3.65134 9.08468 3.80625L9.05217 3.84692L4.50578 8.80919L7.93365 8.65208C8.14487 8.64238 8.32396 8.80574 8.33367 9.01696C8.34249 9.20898 8.20828 9.37445 8.02511 9.41024L7.96879 9.41698L3.61516 9.61699C3.58732 9.61827 3.56004 9.61654 3.53363 9.61209C3.52586 9.61056 3.51793 9.60897 3.51004 9.60712C3.50311 9.60573 3.49625 9.60391 3.48947 9.60192C3.47973 9.59886 3.46983 9.59552 3.46006 9.59177C3.45241 9.58899 3.44527 9.58597 3.43823 9.58274C3.42959 9.57865 3.42057 9.5741 3.41169 9.56916C3.40541 9.56579 3.39958 9.56233 3.39385 9.55872C3.38538 9.55327 3.37684 9.54741 3.36848 9.54116C3.36203 9.53646 3.35588 9.53156 3.34989 9.52647C3.34633 9.52331 3.34258 9.52001 3.33889 9.51663L3.32808 9.50647C3.32274 9.50118 3.31755 9.49572 3.31252 9.49012L3.33889 9.51663C3.32107 9.50031 3.30516 9.48269 3.29115 9.46405C3.28778 9.45962 3.28444 9.45495 3.2812 9.45021C3.27454 9.44042 3.26848 9.4306 3.2629 9.42059C3.26011 9.41562 3.25725 9.4102 3.25452 9.40469C3.24904 9.39361 3.24423 9.38261 3.23996 9.37144C3.23793 9.36621 3.23592 9.3606 3.23405 9.35493C3.23101 9.34566 3.22838 9.33656 3.2261 9.3274C3.22447 9.32092 3.22294 9.314 3.2216 9.30701L3.22059 9.30158C3.21762 9.28488 3.21576 9.268 3.21502 9.25107L3.21507 9.25049L3.03343 4.8957C3.02462 4.68444 3.18874 4.50603 3.4 4.49722C3.59206 4.48921 3.75696 4.62412 3.79197 4.80744L3.79848 4.86379L3.94187 8.2912L8.48757 3.32968C8.6304 3.17377 8.87258 3.16317 9.02849 3.306Z" fill="#F30131"/>
</svg>
