<svg width="16" height="18" viewBox="0 0 16 18" fill="none" xmlns="http://www.w3.org/2000/svg">
<path d="M9 1.00004C9.0002 0.447954 8.55341 0.000219997 8.002 7.38481e-08C7.45058 -0.000209853 7.00339 0.447174 7.00319 0.999262L7 8.99995C6.9998 9.55206 7.44669 9.9998 7.9981 10C8.54942 10.0002 8.99661 9.55276 8.99681 9.00075L9 1.00004Z" fill="#ED2552"/>
<path d="M0 9.79902C0 7.53432 0.89541 5.48415 2.34308 4.00007L3.7573 5.44982C2.67155 6.56288 2 8.1005 2 9.79902C2 13.196 4.68629 15.9498 8 15.9498C11.3137 15.9498 14 13.196 14 9.79902C14 8.1005 13.3284 6.5628 12.2426 5.44975L13.6568 4C15.1046 5.48409 16 7.53432 16 9.79902C16 14.3282 12.4183 18 8 18C3.58172 18 0 14.3282 0 9.79902Z" fill="#ED2552"/>
</svg>
