<svg width="6" height="18" viewBox="0 0 3 11" fill="none" xmlns="http://www.w3.org/2000/svg">
<path d="M1.375 2.75C2.15417 2.75 2.75 2.15417 2.75 1.375C2.75 0.595833 2.15417 0 1.375 0C0.595833 0 0 0.595833 0 1.375C0 2.15417 0.595833 2.75 1.375 2.75Z" fill="black"/>
<path d="M1.375 4.125C0.595833 4.125 0 4.72083 0 5.5C0 6.27917 0.595833 6.875 1.375 6.875C2.15417 6.875 2.75 6.27917 2.75 5.5C2.75 4.72083 2.15417 4.125 1.375 4.125Z" fill="black"/>
<path d="M1.375 8.25C0.595833 8.25 0 8.84583 0 9.625C0 10.4042 0.595833 11 1.375 11C2.15417 11 2.75 10.4042 2.75 9.625C2.75 8.84583 2.15417 8.25 1.375 8.25Z" fill="black"/>
</svg>
