<svg width="35" height="33" viewBox="0 0 35 33" fill="none" xmlns="http://www.w3.org/2000/svg">
<circle cx="16.5" cy="16.5" r="16.5" fill="#FFD401"/>
<path d="M9.55078 17.2953C9.55078 16.7187 10.0268 16.2513 10.614 16.2513H23.0707L18.4108 12.1571C17.9732 11.7727 17.9359 11.1126 18.3274 10.6829C18.7189 10.2532 19.3911 10.2165 19.8287 10.601L26.5624 16.5172C26.7878 16.7153 26.9167 16.9983 26.9167 17.2953C26.9167 17.5923 26.7878 17.8753 26.5624 18.0734L19.8287 23.9896C19.3911 24.3741 18.7189 24.3375 18.3274 23.9077C17.9359 23.478 17.9732 22.8179 18.4108 22.4334L23.0707 18.3393H10.614C10.0268 18.3393 9.55078 17.8719 9.55078 17.2953Z" fill="black"/>
<circle cx="18.5903" cy="16.5906" r="16" fill="#EA133E"/>
<path d="M10.5908 16.5906C10.5908 16.0383 11.0468 15.5906 11.6092 15.5906H23.5403L19.0771 11.6692C18.6579 11.3009 18.6222 10.6687 18.9972 10.2571C19.3722 9.84553 20.016 9.81041 20.4351 10.1787L26.8848 15.8453C27.1007 16.035 27.2241 16.3061 27.2241 16.5906C27.2241 16.8751 27.1007 17.1461 26.8848 17.3358L20.4351 23.0024C20.016 23.3707 19.3722 23.3356 18.9972 22.924C18.6222 22.5124 18.6579 21.8802 19.0771 21.5119L23.5403 17.5906H11.6092C11.0468 17.5906 10.5908 17.1428 10.5908 16.5906Z" fill="white"/>
</svg>
