<svg width="15" height="15" viewBox="0 0 12 12" fill="none" xmlns="http://www.w3.org/2000/svg">
<path d="M3.81674 9.60297C3.65349 9.49848 3.59622 9.29082 3.6756 9.11976L3.70066 9.07412L7.32888 3.4058L3.97872 4.14834C3.77229 4.19411 3.56784 4.06388 3.52206 3.85745C3.48044 3.66978 3.58429 3.48375 3.75861 3.41709L3.81295 3.40079L8.06781 2.45726C8.09502 2.45123 8.12219 2.44825 8.14897 2.4481C8.15689 2.44829 8.16497 2.44849 8.17306 2.44895C8.18013 2.44914 8.1872 2.44975 8.19422 2.45056C8.20434 2.4519 8.21466 2.45349 8.22494 2.45551C8.23294 2.45694 8.2405 2.45869 8.24799 2.46066C8.2572 2.46321 8.26688 2.46615 8.27647 2.46949C8.28323 2.47173 8.28957 2.47415 8.29583 2.47672C8.30511 2.48063 8.31453 2.48495 8.32384 2.48967C8.33099 2.49319 8.33789 2.49697 8.34467 2.50095C8.34872 2.50346 8.35298 2.50607 8.3572 2.50877L8.36958 2.51692C8.37575 2.52122 8.3818 2.5257 8.38771 2.53036L8.3572 2.50877C8.37754 2.52179 8.39625 2.53642 8.41324 2.55238C8.41732 2.55616 8.42141 2.56019 8.42542 2.56431C8.43366 2.57281 8.44132 2.58144 8.44853 2.59035C8.45213 2.59476 8.45587 2.59962 8.45951 2.60457C8.4668 2.61455 8.47343 2.62457 8.47956 2.63484C8.48245 2.63965 8.48539 2.64483 8.48821 2.65009C8.49279 2.65871 8.49694 2.66721 8.50076 2.67585C8.50348 2.68195 8.50617 2.68851 8.50869 2.69517L8.51062 2.70034C8.51641 2.71629 8.52113 2.7326 8.52476 2.74915L8.52482 2.74973L9.45044 7.00889C9.49535 7.21551 9.36425 7.41941 9.15763 7.46432C8.96979 7.50514 8.7842 7.4005 8.71827 7.2259L8.7022 7.1715L7.97326 3.81943L4.34559 9.48689C4.23161 9.66498 3.99483 9.71695 3.81674 9.60297Z" fill="#34A853"/>
</svg>
