<svg width="12" height="11" viewBox="0 0 12 11" fill="none" xmlns="http://www.w3.org/2000/svg">
<path d="M5.79176 0.00873966L5.94296 0C6.50709 0 6.97331 0.360165 7.04709 0.827454L7.05726 0.957363V4.1473L10.7716 4.14857C11.3357 4.14857 11.802 4.50874 11.8757 4.97603L11.8859 5.10594C11.8859 5.59061 11.4667 5.99117 10.9228 6.05456L10.7716 6.0633L7.05726 6.06202V9.25451C7.05726 9.73918 6.63806 10.1397 6.09416 10.2031L5.94296 10.2119C5.37883 10.2119 4.91261 9.85171 4.83883 9.38442L4.82865 9.25451V6.06202L1.11431 6.0633C0.550176 6.0633 0.0839578 5.70313 0.0101724 5.23584L0 5.10594C0 4.62126 0.419207 4.22071 0.9631 4.15731L1.11431 4.14857L4.82865 4.1473V0.957363C4.82865 0.472687 5.24786 0.0721329 5.79176 0.00873966Z" fill="#454545"/>
</svg>
