<svg width="16" height="19" viewBox="0 0 16 19" fill="none" xmlns="http://www.w3.org/2000/svg">
<path d="M7.875 9.1875C8.78356 9.1875 9.67171 8.91808 10.4272 8.41332C11.1826 7.90855 11.7714 7.1911 12.1191 6.3517C12.4668 5.51231 12.5577 4.58866 12.3805 3.69756C12.2032 2.80646 11.7657 1.98793 11.1233 1.34548C10.4808 0.703033 9.6623 0.265521 8.7712 0.0882697C7.8801 -0.0889812 6.95645 0.00199039 6.11705 0.34968C5.27765 0.69737 4.5602 1.28616 4.05544 2.0416C3.55067 2.79704 3.28125 3.68519 3.28125 4.59375C3.28125 5.81209 3.76523 6.98053 4.62673 7.84202C5.48822 8.70352 6.65666 9.1875 7.875 9.1875ZM7.875 1.3125C8.52397 1.3125 9.15837 1.50494 9.69796 1.86549C10.2376 2.22604 10.6581 2.7385 10.9065 3.33807C11.1548 3.93764 11.2198 4.59739 11.0932 5.23389C10.9666 5.87039 10.6541 6.45505 10.1952 6.91395C9.7363 7.37284 9.15164 7.68535 8.51514 7.81195C7.87864 7.93856 7.21889 7.87358 6.61932 7.62523C6.01975 7.37688 5.50729 6.95632 5.14674 6.41672C4.78619 5.87712 4.59375 5.24272 4.59375 4.59375C4.59375 3.72351 4.93945 2.88891 5.55481 2.27356C6.17016 1.6582 7.00476 1.3125 7.875 1.3125Z" fill="#BF015D"/>
<path d="M8.53125 10.5H7.21875C5.30422 10.5 3.4681 11.2605 2.11432 12.6143C0.760545 13.9681 0 15.8042 0 17.7188C0 17.8928 0.0691406 18.0597 0.192211 18.1828C0.315282 18.3059 0.482202 18.375 0.65625 18.375H15.0938C15.2678 18.375 15.4347 18.3059 15.5578 18.1828C15.6809 18.0597 15.75 17.8928 15.75 17.7188C15.75 15.8042 14.9895 13.9681 13.6357 12.6143C12.2819 11.2605 10.4458 10.5 8.53125 10.5ZM1.35187 17.0625C1.51324 15.6192 2.20074 14.2859 3.28301 13.3174C4.36528 12.349 5.76643 11.8132 7.21875 11.8125H8.53125C9.98357 11.8132 11.3847 12.349 12.467 13.3174C13.5493 14.2859 14.2368 15.6192 14.3981 17.0625H1.35187Z" fill="#BF015D"/>
</svg>
