<svg width="48" height="48" viewBox="0 0 48 48" fill="none" xmlns="http://www.w3.org/2000/svg">
<circle cx="24" cy="24" r="24" fill="white"/>
<circle cx="24" cy="24" r="23.4" stroke="black" stroke-width="1.2"/>
<path d="M13.3806 13.7863L13.5686 13.5686C14.2577 12.8794 15.3361 12.8167 16.0961 13.3806L16.3138 13.5686L24 21.2539L31.6862 13.5686C32.4443 12.8105 33.6734 12.8105 34.4314 13.5686C35.1895 14.3266 35.1895 15.5557 34.4314 16.3138L26.7461 24L34.4314 31.6862C35.1206 32.3754 35.1833 33.4538 34.6194 34.2137L34.4314 34.4314C33.7423 35.1206 32.6639 35.1833 31.9039 34.6194L31.6862 34.4314L24 26.7461L16.3138 34.4314C15.5557 35.1895 14.3266 35.1895 13.5686 34.4314C12.8105 33.6734 12.8105 32.4443 13.5686 31.6862L21.2539 24L13.5686 16.3138C12.8794 15.6246 12.8167 14.5462 13.3806 13.7863Z" fill="#ED2552"/>
</svg>
