<svg width="14" height="16" viewBox="0 0 14 16" fill="none" xmlns="http://www.w3.org/2000/svg">
<path d="M6.62354 7.66279C7.38708 7.66237 8.13335 7.43736 8.76798 7.01621C9.4026 6.59506 9.89709 5.99669 10.1889 5.29677C10.4807 4.59684 10.5567 3.8268 10.4074 3.08402C10.258 2.34124 9.88993 1.65908 9.34973 1.12381C8.80953 0.588533 8.12145 0.224183 7.3725 0.0768324C6.62355 -0.070518 5.84737 0.00574947 5.14211 0.29599C4.43686 0.586231 3.8342 1.07741 3.41035 1.70741C2.98649 2.33742 2.76049 3.07795 2.76091 3.83536C2.76147 4.85103 3.16874 5.82487 3.89312 6.54265C4.61751 7.26043 5.59967 7.66336 6.62354 7.66279ZM6.61991 1.09783C7.1653 1.09752 7.69852 1.25766 8.15216 1.55798C8.6058 1.8583 8.95947 2.28531 9.16846 2.78503C9.37745 3.28474 9.43236 3.83471 9.32625 4.36538C9.22015 4.89606 8.95779 5.38361 8.57235 5.76637C8.18692 6.14914 7.69572 6.40993 7.16088 6.51577C6.62603 6.62162 6.07155 6.56775 5.56757 6.36099C5.06359 6.15424 4.63273 5.80387 4.32948 5.3542C4.02623 4.90454 3.86421 4.37577 3.86391 3.83475C3.86351 3.10928 4.15365 2.41336 4.6705 1.90009C5.18735 1.38681 5.88858 1.09823 6.61991 1.09783Z" fill="black"/>
<path d="M7.17442 8.75668L6.07141 8.75729C4.46247 8.75818 2.91977 9.39306 1.7827 10.5223C0.645633 11.6515 0.00732834 13.1825 0.00821104 14.7785C0.00829128 14.9236 0.066473 15.0627 0.169957 15.1653C0.27344 15.2678 0.413749 15.3254 0.560017 15.3253L12.6931 15.3186C12.8393 15.3185 12.9796 15.2608 13.083 15.1581C13.1863 15.0555 13.2444 14.9163 13.2443 14.7712C13.2434 13.1752 12.6034 11.6448 11.4651 10.5169C10.3268 9.38896 8.78336 8.75579 7.17442 8.75668ZM1.144 14.2308C1.27895 13.0275 1.8561 11.9157 2.76517 11.1079C3.67425 10.3 4.85151 9.8527 6.07202 9.85145L7.17503 9.85084C8.39554 9.85074 9.57329 10.2967 10.4833 11.1036C11.3932 11.9104 11.9716 13.0216 12.1079 14.2248L1.144 14.2308Z" fill="black"/>
<path d="M5.60698 13.7752C5.50956 13.8398 5.37887 13.7705 5.3788 13.6543L5.37728 10.8925C5.3771 10.5715 5.63897 10.311 5.96257 10.3102L7.72257 10.3061C8.04657 10.3054 8.30985 10.5653 8.31061 10.8867L8.31214 13.6527C8.3122 13.7689 8.18159 13.8383 8.08409 13.7738L6.84508 12.9541L5.60698 13.7752Z" fill="#212121"/>
</svg>
