<svg width="14" height="16" viewBox="0 0 12 14" fill="none" xmlns="http://www.w3.org/2000/svg">
<path fill-rule="evenodd" clip-rule="evenodd" d="M12 2.45C12 3.8031 10.9553 4.9 9.66667 4.9C9.06533 4.9 8.51713 4.66116 8.1034 4.2689L4.59075 6.72777C4.64029 6.92643 4.66667 7.13503 4.66667 7.35C4.66667 7.56497 4.64029 7.77357 4.59075 7.97223L7.73593 10.1739C8.15573 9.52567 8.86387 9.1 9.66667 9.1C10.9553 9.1 12 10.1969 12 11.55C12 12.9031 10.9553 14 9.66667 14C8.38587 14 7.34607 12.9164 7.33347 11.5747L3.89657 9.16888C3.48286 9.56116 2.93466 9.8 2.33333 9.8C1.04467 9.8 0 8.7031 0 7.35C0 5.9969 1.04467 4.9 2.33333 4.9C2.93466 4.9 3.48286 5.13884 3.89657 5.5311L7.40927 3.07223C7.35973 2.87353 7.33333 2.66501 7.33333 2.45C7.33333 1.0969 8.378 0 9.66667 0C10.9553 0 12 1.0969 12 2.45ZM9.66667 3.5C10.2189 3.5 10.6667 3.0299 10.6667 2.45C10.6667 1.8701 10.2189 1.4 9.66667 1.4C9.1144 1.4 8.66667 1.8701 8.66667 2.45C8.66667 3.0299 9.1144 3.5 9.66667 3.5ZM2.33333 8.4C2.88562 8.4 3.33333 7.92988 3.33333 7.35C3.33333 6.77012 2.88562 6.3 2.33333 6.3C1.78105 6.3 1.33333 6.77012 1.33333 7.35C1.33333 7.92988 1.78105 8.4 2.33333 8.4ZM10.6667 11.55C10.6667 12.1299 10.2189 12.6 9.66667 12.6C9.1144 12.6 8.66667 12.1299 8.66667 11.55C8.66667 10.9701 9.1144 10.5 9.66667 10.5C10.2189 10.5 10.6667 10.9701 10.6667 11.55Z" fill="white"/>
</svg>
