<svg width="25" height="25" viewBox="0 0 17 15" fill="none" xmlns="http://www.w3.org/2000/svg">
<path d="M11.6788 0.116333C14.4149 0.116333 16.0298 1.74076 16.0298 4.52144H12.6731V4.54981C11.1152 4.54981 9.85233 5.82017 9.85233 7.38724C9.85233 8.9543 11.1152 10.2247 12.6731 10.2247H16.0298V10.48C16.0298 13.2252 14.4149 14.8497 11.6788 14.8497H4.51408C1.77796 14.8497 0.163086 13.2252 0.163086 10.48V4.48597C0.163086 1.74076 1.77796 0.116333 4.51408 0.116333H11.6788ZM15.4374 5.74153C15.7645 5.74153 16.0298 6.00831 16.0298 6.33739V8.40871C16.0259 8.73619 15.763 9.00074 15.4374 9.00457H12.7365C11.9479 9.01524 11.2582 8.47207 11.0794 7.69935C10.9898 7.21968 11.1155 6.7247 11.4229 6.34707C11.7303 5.96945 12.1879 5.7478 12.6731 5.74153H15.4374ZM13.0539 6.69916H12.793C12.6328 6.69727 12.4785 6.75995 12.3645 6.87323C12.2506 6.98652 12.1865 7.14096 12.1865 7.30211C12.1865 7.6402 12.4569 7.91537 12.793 7.91925H13.0539C13.3888 7.91925 13.6603 7.64613 13.6603 7.30921C13.6603 6.97229 13.3888 6.69916 13.0539 6.69916ZM8.39965 3.30134H3.92172C3.58952 3.30132 3.31913 3.57015 3.31526 3.9043C3.31526 4.24238 3.58565 4.51755 3.92172 4.52144H8.39965C8.73459 4.52144 9.00611 4.24831 9.00611 3.91139C9.00611 3.57447 8.73459 3.30134 8.39965 3.30134Z" fill="black"/>
</svg>
