<svg width="21" height="21" viewBox="0 0 21 21" fill="none" xmlns="http://www.w3.org/2000/svg">
<path d="M0 4.02273C0 1.80103 1.80103 0 4.02273 0H16.9773C19.1989 0 21 1.80103 21 4.02273V16.9773C21 19.1989 19.1989 21 16.9773 21H4.02273C1.80103 21 0 19.1989 0 16.9773V4.02273ZM16.2804 7.28032C16.5732 6.98743 16.5732 6.51257 16.2804 6.21968C15.9874 5.92677 15.5126 5.92677 15.2196 6.21968L8.25 13.1894L5.78032 10.7196C5.48743 10.4268 5.01257 10.4268 4.71968 10.7196C4.42677 11.0126 4.42677 11.4874 4.71968 11.7804L7.71968 14.7804C8.01256 15.0732 8.48744 15.0732 8.78032 14.7804L16.2804 7.28032Z" fill="#FFD401"/>
</svg>
