<svg width="18" height="18" viewBox="0 0 13 13" fill="none" xmlns="http://www.w3.org/2000/svg">
<rect width="13" height="13" rx="3" fill="black"/>
<path d="M0 2.49026C0 1.11493 1.11493 0 2.49026 0H10.5098C11.8851 0 13 1.11493 13 2.49026V10.5098C13 11.8851 11.8851 13 10.5098 13H2.49026C1.11493 13 0 11.8851 0 10.5098V2.49026ZM10.0783 4.50687C10.2596 4.32555 10.2596 4.03159 10.0783 3.85027C9.89699 3.66895 9.60301 3.66895 9.42166 3.85027L5.10714 8.16484L3.5783 6.63594C3.39698 6.45467 3.10302 6.45467 2.9217 6.63594C2.74038 6.81729 2.74038 7.11128 2.9217 7.29263L4.77885 9.14977C4.96016 9.33103 5.25413 9.33103 5.43544 9.14977L10.0783 4.50687Z" fill="#FFD401"/>
</svg>
